<svg xmlns="http://www.w3.org/2000/svg" width="1200" height="300" viewBox="0 0 1200 300" role="img" aria-label="GitHub telemetry: 142 contributions in the last 12 months">
<title>GitHub telemetry: 142 contributions in the last 12 months</title>
<defs>
  <linearGradient id="bg" x1="0" y1="0" x2="1" y2="1">
    <stop offset="0" stop-color="#f8fafc"/><stop offset="1" stop-color="#e6edf6"/>
  </linearGradient>
  <clipPath id="frame"><rect width="1200" height="300" rx="16"/></clipPath>
  <radialGradient id="moonG" cx="0.36" cy="0.32" r="0.75">
    <stop offset="0" stop-color="#f8fafc"/><stop offset="0.55" stop-color="#cbd5e1"/><stop offset="1" stop-color="#64748b"/>
  </radialGradient><radialGradient id="moonShade" cx="0.3" cy="0.28" r="0.95">
    <stop offset="0.55" stop-color="#020617" stop-opacity="0"/><stop offset="1" stop-color="#020617" stop-opacity="0.55"/>
  </radialGradient>
  <clipPath id="langBar"><rect x="830" y="68" width="330" height="10" rx="5"/></clipPath>
</defs>
<style>
  .sans{font-family:'Segoe UI', -apple-system, BlinkMacSystemFont, 'Helvetica Neue', Arial, sans-serif} .mono{font-family:ui-monospace, 'SF Mono', SFMono-Regular, 'Cascadia Code', Consolas, 'Liberation Mono', monospace}
  .tw1{animation:tw 3.2s ease-in-out infinite} .tw2{animation:tw 4.6s ease-in-out 1.1s infinite} .tw3{animation:tw 6s ease-in-out 2.3s infinite}
  @keyframes tw{0%,100%{opacity:.15}50%{opacity:1}}
  
  @media (prefers-reduced-motion: reduce){*{animation:none!important}}
</style>
<g clip-path="url(#frame)">
  <rect width="1200" height="300" fill="url(#bg)"/>
  
  <circle cx="827.7" cy="231.8" r="0.6" fill="#64748b" opacity="0.6" class="tw1"/><circle cx="102.2" cy="177.6" r="1.2" fill="#64748b" opacity="0.5"/><circle cx="1086.7" cy="68.8" r="1.3" fill="#64748b" opacity="0.6"/><circle cx="792.7" cy="4.1" r="0.9" fill="#64748b" opacity="0.4"/><circle cx="1075.9" cy="86.4" r="1.2" fill="#64748b" opacity="0.6" class="tw2"/><circle cx="304.3" cy="5.7" r="1.3" fill="#64748b" opacity="0.3"/><circle cx="327.1" cy="37" r="0.9" fill="#64748b" opacity="0.8"/><circle cx="294.6" cy="24.3" r="1.3" fill="#64748b" opacity="0.4"/><circle cx="489.1" cy="295.7" r="0.7" fill="#64748b" opacity="0.4" class="tw3"/><circle cx="260.7" cy="260.8" r="1.2" fill="#64748b" opacity="0.7"/><circle cx="613.9" cy="241.5" r="1.1" fill="#64748b" opacity="0.3"/><circle cx="763.3" cy="173.3" r="0.7" fill="#64748b" opacity="0.7"/><circle cx="731.3" cy="2.4" r="1.4" fill="#64748b" opacity="0.4" class="tw1"/><circle cx="420.1" cy="262.4" r="0.7" fill="#64748b" opacity="0.3"/><circle cx="1000.4" cy="83.7" r="1.5" fill="#64748b" opacity="0.2"/><circle cx="421.3" cy="227.6" r="0.7" fill="#64748b" opacity="0.6"/><circle cx="92.1" cy="24" r="1.2" fill="#64748b" opacity="0.5" class="tw2"/><circle cx="304.1" cy="279" r="0.5" fill="#64748b" opacity="0.6"/><circle cx="1144.6" cy="85.6" r="1" fill="#64748b" opacity="0.7"/><circle cx="1016.2" cy="173.7" r="1.5" fill="#64748b" opacity="0.6"/><circle cx="648.2" cy="33" r="0.7" fill="#64748b" opacity="0.5" class="tw3"/><circle cx="186" cy="75.6" r="1.2" fill="#64748b" opacity="0.3"/><circle cx="96.1" cy="98" r="1.3" fill="#64748b" opacity="0.6"/><circle cx="495" cy="29.3" r="0.7" fill="#64748b" opacity="0.8"/><circle cx="391.7" cy="210.8" r="1.2" fill="#64748b" opacity="0.3" class="tw1"/><circle cx="940.2" cy="279.5" r="1.1" fill="#64748b" opacity="0.3"/><circle cx="434.1" cy="120.9" r="0.5" fill="#64748b" opacity="0.5"/><circle cx="1101.4" cy="93.4" r="1.2" fill="#64748b" opacity="0.2"/><circle cx="979.7" cy="30.2" r="1" fill="#64748b" opacity="0.7" class="tw2"/><circle cx="251.7" cy="178.9" r="0.5" fill="#64748b" opacity="0.4"/><circle cx="796.1" cy="76.3" r="1.1" fill="#64748b" opacity="0.3"/><circle cx="304" cy="295.4" r="1.1" fill="#64748b" opacity="0.5"/><circle cx="890.8" cy="11.6" r="1.1" fill="#64748b" opacity="0.6" class="tw3"/><circle cx="23.2" cy="43.4" r="0.8" fill="#64748b" opacity="0.4"/><circle cx="770.9" cy="284.7" r="1.1" fill="#64748b" opacity="0.7"/><circle cx="928.1" cy="85" r="0.5" fill="#64748b" opacity="0.3"/><circle cx="49.9" cy="68.1" r="1.4" fill="#64748b" opacity="0.5" class="tw1"/><circle cx="50.6" cy="233.2" r="1" fill="#64748b" opacity="0.4"/><circle cx="1073.2" cy="232.4" r="1.5" fill="#64748b" opacity="0.3"/><circle cx="326.9" cy="241.5" r="0.7" fill="#64748b" opacity="0.4"/><circle cx="919" cy="1.2" r="1.1" fill="#64748b" opacity="0.5" class="tw2"/><circle cx="324.7" cy="72.9" r="1.1" fill="#64748b" opacity="0.7"/><circle cx="677.2" cy="181.6" r="1.1" fill="#64748b" opacity="0.5"/><circle cx="682.7" cy="59.8" r="0.5" fill="#64748b" opacity="0.4"/><circle cx="595.3" cy="18.9" r="1.1" fill="#64748b" opacity="0.5" class="tw3"/><circle cx="558.3" cy="115.2" r="1" fill="#64748b" opacity="0.4"/><circle cx="302.8" cy="130.5" r="1" fill="#64748b" opacity="0.6"/><circle cx="430.6" cy="73.6" r="1.3" fill="#64748b" opacity="0.2"/><circle cx="439.9" cy="206.9" r="0.5" fill="#64748b" opacity="0.3" class="tw1"/><circle cx="1190.7" cy="24.2" r="1" fill="#64748b" opacity="0.4"/>
  <circle cx="200" cy="152" r="130" fill="none" stroke="rgba(15,23,42,0.12)"/>
  <g>
    <animateTransform attributeName="transform" type="rotate" from="0 200 152" to="360 200 152" dur="12s" repeatCount="indefinite"/>
    <line x1="200" y1="102" x2="200" y2="22" stroke="#0d9488" stroke-opacity="0.35" stroke-width="1.5"/>
  </g>
  <circle cx="200" cy="98" r="1.3" fill="#94a3b8" opacity="0.6"/><circle cx="206.4" cy="98.4" r="1.3" fill="#94a3b8" opacity="0.6"/><circle cx="212.7" cy="99.5" r="1.3" fill="#94a3b8" opacity="0.6"/><circle cx="218.8" cy="101.4" r="1.3" fill="#94a3b8" opacity="0.6"/><circle cx="224.7" cy="104" r="1.3" fill="#94a3b8" opacity="0.6"/><circle cx="230.2" cy="107.2" r="1.3" fill="#94a3b8" opacity="0.6"/><circle cx="235.3" cy="111.1" r="1.3" fill="#94a3b8" opacity="0.6"/><line x1="239.8" y1="115.6" x2="265.5" y2="92.1" stroke="#0d9488" stroke-opacity="0.6" stroke-width="4" stroke-linecap="round"/><line x1="243.9" y1="120.5" x2="259.2" y2="109.5" stroke="#0d9488" stroke-opacity="0.5" stroke-width="4" stroke-linecap="round"/><line x1="247.3" y1="125.9" x2="263.8" y2="116.8" stroke="#0d9488" stroke-opacity="0.5" stroke-width="4" stroke-linecap="round"/><line x1="250" y1="131.7" x2="267.5" y2="124.6" stroke="#0d9488" stroke-opacity="0.5" stroke-width="4" stroke-linecap="round"/><circle cx="252.1" cy="137.8" r="1.3" fill="#94a3b8" opacity="0.6"/><line x1="253.4" y1="144" x2="281.4" y2="139.8" stroke="#0d9488" stroke-opacity="0.5" stroke-width="4" stroke-linecap="round"/><circle cx="254" cy="150.4" r="1.3" fill="#94a3b8" opacity="0.6"/><circle cx="253.8" cy="156.8" r="1.3" fill="#94a3b8" opacity="0.6"/><circle cx="252.8" cy="163.1" r="1.3" fill="#94a3b8" opacity="0.6"/><circle cx="251.2" cy="169.3" r="1.3" fill="#94a3b8" opacity="0.6"/><line x1="248.8" y1="175.2" x2="316.8" y2="207.6" stroke="#0d9488" stroke-opacity="1" stroke-width="4" stroke-linecap="round"/><circle cx="245.7" cy="180.8" r="1.3" fill="#94a3b8" opacity="0.6"/><circle cx="241.9" cy="186" r="1.3" fill="#94a3b8" opacity="0.6"/><circle cx="237.6" cy="190.7" r="1.3" fill="#94a3b8" opacity="0.6"/><circle cx="232.8" cy="194.9" r="1.3" fill="#94a3b8" opacity="0.6"/><circle cx="227.5" cy="198.5" r="1.3" fill="#94a3b8" opacity="0.6"/><circle cx="221.8" cy="201.4" r="1.3" fill="#94a3b8" opacity="0.6"/><circle cx="215.8" cy="203.6" r="1.3" fill="#94a3b8" opacity="0.6"/><circle cx="209.6" cy="205.1" r="1.3" fill="#94a3b8" opacity="0.6"/><line x1="203.2" y1="205.9" x2="205.6" y2="245.9" stroke="#0d9488" stroke-opacity="0.6" stroke-width="4" stroke-linecap="round"/><line x1="196.8" y1="205.9" x2="193.7" y2="258.3" stroke="#0d9488" stroke-opacity="0.8" stroke-width="4" stroke-linecap="round"/><line x1="190.4" y1="205.1" x2="184.8" y2="236.4" stroke="#0d9488" stroke-opacity="0.6" stroke-width="4" stroke-linecap="round"/><line x1="184.2" y1="203.6" x2="170.6" y2="248.3" stroke="#0d9488" stroke-opacity="0.7" stroke-width="4" stroke-linecap="round"/><circle cx="178.2" cy="201.4" r="1.3" fill="#94a3b8" opacity="0.6"/><circle cx="172.5" cy="198.5" r="1.3" fill="#94a3b8" opacity="0.6"/><line x1="167.2" y1="194.9" x2="150.1" y2="217.4" stroke="#0d9488" stroke-opacity="0.5" stroke-width="4" stroke-linecap="round"/><circle cx="162.4" cy="190.7" r="1.3" fill="#94a3b8" opacity="0.6"/><circle cx="158.1" cy="186" r="1.3" fill="#94a3b8" opacity="0.6"/><circle cx="154.3" cy="180.8" r="1.3" fill="#94a3b8" opacity="0.6"/><circle cx="151.2" cy="175.2" r="1.3" fill="#94a3b8" opacity="0.6"/><circle cx="148.8" cy="169.3" r="1.3" fill="#94a3b8" opacity="0.6"/><line x1="147.2" y1="163.1" x2="101.4" y2="172.7" stroke="#0d9488" stroke-opacity="0.7" stroke-width="4" stroke-linecap="round"/><line x1="146.2" y1="156.8" x2="106.3" y2="160.4" stroke="#0d9488" stroke-opacity="0.6" stroke-width="4" stroke-linecap="round"/><circle cx="146" cy="150.4" r="1.3" fill="#94a3b8" opacity="0.6"/><circle cx="146.6" cy="144" r="1.3" fill="#94a3b8" opacity="0.6"/><circle cx="147.9" cy="137.8" r="1.3" fill="#94a3b8" opacity="0.6"/><circle cx="150" cy="131.7" r="1.3" fill="#94a3b8" opacity="0.6"/><circle cx="152.7" cy="125.9" r="1.3" fill="#94a3b8" opacity="0.6"/><circle cx="156.1" cy="120.5" r="1.3" fill="#94a3b8" opacity="0.6"/><line x1="160.2" y1="115.6" x2="142.3" y2="99.2" stroke="#0d9488" stroke-opacity="0.5" stroke-width="4" stroke-linecap="round"/><circle cx="164.7" cy="111.1" r="1.3" fill="#94a3b8" opacity="0.6"/><line x1="169.8" y1="107.2" x2="142.6" y2="66.8" stroke="#0d9488" stroke-opacity="0.7" stroke-width="4" stroke-linecap="round"/><circle cx="175.3" cy="104" r="1.3" fill="#94a3b8" opacity="0.6"/><line x1="181.2" y1="101.4" x2="172.8" y2="78.7" stroke="#0d9488" stroke-opacity="0.5" stroke-width="4" stroke-linecap="round"/><line x1="187.3" y1="99.5" x2="168.5" y2="21.7" stroke="#0d9488" stroke-opacity="1" stroke-width="4" stroke-linecap="round"/><circle cx="193.6" cy="98.4" r="1.3" fill="#94a3b8" opacity="0.6"/><text x="264.8" y="29.7" text-anchor="middle" class="mono" font-size="10" fill="#94a3b8">N</text><text x="324.4" y="87.4" text-anchor="middle" class="mono" font-size="10" fill="#94a3b8">D</text><text x="341.9" y="151.8" text-anchor="middle" class="mono" font-size="10" fill="#94a3b8">J</text><text x="328.2" y="217.1" text-anchor="middle" class="mono" font-size="10" fill="#94a3b8">F</text><text x="286.2" y="268.9" text-anchor="middle" class="mono" font-size="10" fill="#94a3b8">M</text><text x="208.4" y="297.8" text-anchor="middle" class="mono" font-size="10" fill="#94a3b8">A</text><text x="142.8" y="286" text-anchor="middle" class="mono" font-size="10" fill="#94a3b8">M</text><text x="79.9" y="231.8" text-anchor="middle" class="mono" font-size="10" fill="#94a3b8">J</text><text x="58.6" y="168.6" text-anchor="middle" class="mono" font-size="10" fill="#94a3b8">J</text><text x="68.4" y="102.6" text-anchor="middle" class="mono" font-size="10" fill="#94a3b8">A</text><text x="120.7" y="38.2" text-anchor="middle" class="mono" font-size="10" fill="#94a3b8">S</text><text x="183.2" y="15" text-anchor="middle" class="mono" font-size="10" fill="#94a3b8">O</text>
  <circle cx="200" cy="152" r="42" fill="url(#moonG)"/>
  <circle cx="186.6" cy="144.4" r="6.7" fill="#94a3b8" opacity="0.35"/><circle cx="209.2" cy="163.8" r="5" fill="#94a3b8" opacity="0.35"/><circle cx="212.6" cy="137.3" r="3.4" fill="#94a3b8" opacity="0.35"/><circle cx="195" cy="169.6" r="2.9" fill="#94a3b8" opacity="0.35"/><circle cx="202.1" cy="151.2" r="4.2" fill="#94a3b8" opacity="0.35"/>
  <circle cx="200" cy="152" r="42" fill="url(#moonShade)"/>
  <text x="200" y="158" text-anchor="middle" class="sans" font-size="22" font-weight="700" fill="#0f172a">142</text>
  <text x="200" y="172" text-anchor="middle" class="mono" font-size="8.5" fill="#334155">contribs</text>

  <line x1="410" y1="36" x2="410" y2="264" stroke="rgba(15,23,42,0.12)"/>
  <text x="440" y="48" class="mono" font-size="13" letter-spacing="3" fill="#0f766e">TELEMETRY</text>
  <text x="440" y="78" class="mono" font-size="10.5" letter-spacing="1.5" fill="#475569">CONTRIBUTIONS</text>
      <text x="440" y="108" class="sans" font-size="28" font-weight="700" fill="#0b1220">142</text>
      <text x="494" y="108" class="mono" font-size="10" fill="#94a3b8">last 12 months</text><text x="630" y="78" class="mono" font-size="10.5" letter-spacing="1.5" fill="#475569">ACTIVE DAYS</text>
      <text x="630" y="108" class="sans" font-size="28" font-weight="700" fill="#0b1220">32</text>
      <text x="668" y="108" class="mono" font-size="10" fill="#94a3b8">with commits</text><text x="440" y="142" class="mono" font-size="10.5" letter-spacing="1.5" fill="#475569">LONGEST STREAK</text>
      <text x="440" y="172" class="sans" font-size="28" font-weight="700" fill="#0b1220">5d</text>
      <text x="478" y="172" class="mono" font-size="10" fill="#94a3b8">in a row</text><text x="630" y="142" class="mono" font-size="10.5" letter-spacing="1.5" fill="#475569">PULL REQUESTS</text>
      <text x="630" y="172" class="sans" font-size="28" font-weight="700" fill="#0b1220">8</text>
      <text x="652" y="172" class="mono" font-size="10" fill="#94a3b8">last 12 months</text><text x="440" y="206" class="mono" font-size="10.5" letter-spacing="1.5" fill="#475569">PUBLIC REPOS</text>
      <text x="440" y="236" class="sans" font-size="28" font-weight="700" fill="#0b1220">73</text>
      <text x="478" y="236" class="mono" font-size="10" fill="#94a3b8">owned</text><text x="630" y="206" class="mono" font-size="10.5" letter-spacing="1.5" fill="#475569">IN ORBIT SINCE</text>
      <text x="630" y="236" class="sans" font-size="28" font-weight="700" fill="#0b1220">2020</text>
      <text x="700" y="236" class="mono" font-size="10" fill="#94a3b8">on GitHub</text>

  <line x1="800" y1="36" x2="800" y2="264" stroke="rgba(15,23,42,0.12)"/>
  <text x="830" y="48" class="mono" font-size="13" letter-spacing="3" fill="#0f766e">LANGUAGE SPECTRUM</text>
  <g clip-path="url(#langBar)"><rect x="830" y="68" width="330" height="10" fill="rgba(15,23,42,0.12)"/><rect x="830" y="68" width="145.4" height="10" fill="#3178c6"/><rect x="977.4" y="68" width="104.6" height="10" fill="#b07219"/><rect x="1084" y="68" width="28.3" height="10" fill="#f1e05a"/><rect x="1114.4" y="68" width="11.5" height="10" fill="#3572A5"/><rect x="1127.9" y="68" width="10.7" height="10" fill="#A97BFF"/><rect x="1140.5" y="68" width="6" height="10" fill="#f34b7d"/></g>
  <circle cx="835" cy="106" r="5" fill="#3178c6"/>
      <text x="850" y="110" class="sans" font-size="14" fill="#0b1220">TypeScript</text>
      <text x="1160" y="110" text-anchor="end" class="mono" font-size="12" fill="#475569">44.7%</text><circle cx="835" cy="133" r="5" fill="#b07219"/>
      <text x="850" y="137" class="sans" font-size="14" fill="#0b1220">Java</text>
      <text x="1160" y="137" text-anchor="end" class="mono" font-size="12" fill="#475569">32.3%</text><circle cx="835" cy="160" r="5" fill="#f1e05a"/>
      <text x="850" y="164" class="sans" font-size="14" fill="#0b1220">JavaScript</text>
      <text x="1160" y="164" text-anchor="end" class="mono" font-size="12" fill="#475569">9.2%</text><circle cx="835" cy="187" r="5" fill="#3572A5"/>
      <text x="850" y="191" class="sans" font-size="14" fill="#0b1220">Python</text>
      <text x="1160" y="191" text-anchor="end" class="mono" font-size="12" fill="#475569">4.1%</text><circle cx="835" cy="214" r="5" fill="#A97BFF"/>
      <text x="850" y="218" class="sans" font-size="14" fill="#0b1220">Kotlin</text>
      <text x="1160" y="218" text-anchor="end" class="mono" font-size="12" fill="#475569">3.8%</text><circle cx="835" cy="241" r="5" fill="#f34b7d"/>
      <text x="850" y="245" class="sans" font-size="14" fill="#0b1220">C++</text>
      <text x="1160" y="245" text-anchor="end" class="mono" font-size="12" fill="#475569">2.4%</text>
  <text x="1160" y="282" text-anchor="end" class="mono" font-size="10" fill="#94a3b8">synced 2026-10-05 · github graphql</text>
</g>
<rect x="0.5" y="0.5" width="1199" height="299" rx="16" fill="none" stroke="rgba(15,23,42,0.12)"/>
</svg>
